# xmcd
#
# Track frame offsets:
#	150
#	13335
#	26903
#	41753
#	55246
#	67456
#	80304
#	92477
#	107822
#	120445
#
# Disc length: 1783 seconds
#
# Revision: 1
# Processed by: cddbd v1.5.2PL0 Copyright (c) Steve Scherf et al.
# Submitted via: audiograbber 1.83.01
#
DISCID=8706f50a
DTITLE=Sawyer Brown - Sawuer Brpwm
DYEAR=1984
DGENRE=Country
TTITLE0=Leona
TTITLE1=Feel Like Me
TTITLE2=Used To Blue
TTITLE3=It's Hard To Keep A Good Love Down
TTITLE4=Step That Step
TTITLE5=Smokin' In The Rockies
TTITLE6=Staying Afloat
TTITLE7=Broken Candy
TTITLE8=The Sun Don't Shine On The Same Folks All The Time
TTITLE9=Going Back To Indiana
EXTD=
EXTT0=
EXTT1=
EXTT2=
EXTT3=
EXTT4=
EXTT5=
EXTT6=
EXTT7=
EXTT8=
EXTT9=
PLAYORDER=
